HIERARCHY
ROOT base
{
	OFFSET 0.0 0.0 0.0
	CHANNELS 6 Xposition Yposition Zposition Zrotation Yrotation Xrotation
	JOINT root
	{
		OFFSET 0 0 0
		CHANNELS 6 Xposition Yposition Zposition Zrotation Yrotation Xrotation
		JOINT chest
		{
			OFFSET 0 4.72302 0
			CHANNELS 3 Zrotation Yrotation Xrotation
			JOINT neck
			{
				OFFSET 0 4.47788 0
				CHANNELS 3 Zrotation Yrotation Xrotation
				End Site
				{
					OFFSET 0.0 0.0 0.0
				}
			}
			JOINT right_shoulder
			{
				OFFSET -0.481 4.87 3.6622
				CHANNELS 3 Zrotation Yrotation Xrotation
				JOINT right_elbow
				{
					OFFSET 0 -5.49576 0
					CHANNELS 3 Zrotation Yrotation Xrotation
					JOINT right_wrist
					{
						OFFSET 0 -5.17894 0
						CHANNELS 3 Zrotation Yrotation Xrotation
						End Site
						{
							OFFSET 0.0 0.0 0.0
						}
					}
				}
			}
			JOINT left_shoulder
			{
				OFFSET -0.481 4.87 -3.6622
				CHANNELS 3 Zrotation Yrotation Xrotation
				JOINT left_elbow
				{
					OFFSET 0 -5.49576 0
					CHANNELS 3 Zrotation Yrotation Xrotation
					JOINT left_wrist
					{
						OFFSET 0 -5.17894 0
						CHANNELS 3 Zrotation Yrotation Xrotation
						End Site
						{
							OFFSET 0.0 0.0 0.0
						}
					}
				}
			}
		}
		JOINT right_hip
		{
			OFFSET 0 0 1.69774
			CHANNELS 3 Zrotation Yrotation Xrotation
			JOINT right_knee
			{
				OFFSET 0 -8.43092 0
				CHANNELS 3 Zrotation Yrotation Xrotation
				JOINT right_ankle
				{
					OFFSET 0 -8.1974 0
					CHANNELS 3 Zrotation Yrotation Xrotation
					End Site
					{
						OFFSET 0.0 0.0 0.0
					}
				}
			}
		}
		JOINT left_hip
		{
			OFFSET 0 0 -1.69774
			CHANNELS 3 Zrotation Yrotation Xrotation
			JOINT left_knee
			{
				OFFSET 0 -8.43092 0
				CHANNELS 3 Zrotation Yrotation Xrotation
				JOINT left_ankle
				{
					OFFSET 0 -8.1974 0
					CHANNELS 3 Zrotation Yrotation Xrotation
					End Site
					{
						OFFSET 0.0 0.0 0.0
					}
				}
			}
		}
	}
	JOINT red_arrow
	{
		OFFSET 0 0 0
		CHANNELS 3 Zrotation Yrotation Xrotation
		End Site
		{
			OFFSET 0.0 0.0 0.0
		}
	}
	JOINT blue_arrow
	{
		OFFSET 0 0 0
		CHANNELS 3 Zrotation Yrotation Xrotation
		End Site
		{
			OFFSET 0.0 0.0 0.0
		}
	}
}
MOTION
Frames: 15
Frame Time: 0.0333333333333333
0 18.08466 0 0 0 0 0 0 0 0 -90 0 0 0 0 0 0 0 0 0 -90 0 0 0 0 0 0 0 0 90 0 0 0 0 0 0 0 0 0 0 0 0 0 0 0 0 0 0 0 0 0 0 0 0 0 0 0 0 0 0
-0.332325027137995 0 -0.00294129606336356 0 -1.10769476165263 0 0 17.9318000674248 0 -3.96791204600321 4.44780693735914E-15 2.75508086909661 -0.588835920725764 0.432642795968727 0.969582106437023 -16.4622485751496 -4.6301407004041 1.42276136963431 11.4923398185299 -9.58313438487936 -13.8903655955606 11.7487390187068 0 0 0 0 0 9.20434055740099 -8.20369061444926 15.024127602203 2.92214638567163 0 0 0 0 0 0.137844443269604 -0.876893325510017 -2.49223365956995 1.50782710419104E-05 0 0 -1.6754127163632 -9.02973659978887 1.20803839655667 2.5367661160064 -1.00489810270858 -1.53130814835228 4.67756924320388E-05 0 0 -5.88775739428084 8.45070786762498 2.51876616992496 0 0 0 0 0 0
-0.641756561398506 0 0.0131507517769933 0 -1.09927408471966 0 0 17.8986725211143 0 -5.26348755534147 0.159318232958247 1.90726087683576 -4.86281405100778 0.760452688204663 2.29485070671544 -17.1531401967469 -6.23084010162075 2.45848577848605 10.1992904047413 -8.72622139688891 -27.5596370548036 4.4659499246641 0 0 0 0 0 0.464671338017964 -11.6172002881281 27.7391141788772 -0.000259373609357966 0 0 0 0 0 2.59022273423097 -0.72523934433589 -1.47886672345199 0.00732047285518936 0 0 -2.39276646367761 -9.57280607502153 0.452984917680047 6.57052728849561 0.884709832233174 -0.79226242366573 0.0087525422433542 0 0 -5.50513761013175 5.37839483962977 4.60069185702712 0 0 0 0 0 0
-1.02466349005699 0 -0.0322305664420128 0 -1.01852759336744 0 0 17.7231903195381 0 -7.49602507311204 1.52107825953968 1.14169742619312 -9.19522404091947 0.944593222576382 4.19197958374369 -17.1888979769035 -8.06997047830949 3.81528472032761 5.66859568587594 -12.8426451359513 -42.7223977395154 -0.00165131829376959 0 0 0 0 0 -11.3228811052044 -9.26222549187587 39.9757448534106 -0.00693369421688088 0 0 0 0 0 5.76449194050759 -1.75446526494255 -0.936692939647073 0.000169454449287667 0 0 0.43603136141629 -9.96652793635052 -0.105806985551925 12.8411232675994 3.38659482456192 -1.14751449528789 3.27994350392688E-06 0 0 -4.14208301654547 3.23506223438867 5.95849237919147 0 0 0 0 0 0
-1.52198329567909 0 -0.0434989635832608 0 -0.885698598400139 0 0 17.6218121528626 0 -10.2895738267514 2.4832140498262 -0.456557410215248 -14.3818382593968 1.74688383759815 6.65213757234332 -15.9015051293539 -8.91695720938946 5.05521067208695 1.12682885268666 -22.2689604127891 -54.5644784987201 -0.00932456058118285 0 0 0 0 0 -19.9852611782095 -1.94271296263691 46.8877457098582 -0.000157690595909098 0 0 0 0 0 11.4615304093233 -4.26849213261076 0.26022618298675 -2.96254247230061 0 0 1.83249762464126 -8.70077070083225 -0.326736833278175 20.4704694590436 6.56666336947959 -0.753425075611106 0.0149186522640886 0 0 -3.75398700291161 1.70725663859851 6.35745357356214 0 0 0 0 0 0
-2.1521792024374 0 -0.100107004120946 0 -0.758318971212396 0 0 17.5546989917755 0 -13.7310642353924 2.35112337070378 -1.16420591872873 -19.7115573400884 2.90473477360258 7.33520265039221 -13.8341779662477 -8.82621598791458 5.81669943595407 -1.49236622003823 -33.3159309822776 -61.3426096167647 -2.26256131063881E-06 0 0 0 0 0 -25.0470048509484 8.34586524601923 48.2739920399123 -0.202868344396801 0 0 0 0 0 21.1488274638085 -6.48320970148966 -0.232071565940307 -11.4469112517367 0 0 3.25154619140003 -5.08827313367385 0.00245400884299236 30.2995952470779 11.1351974505839 -0.890538656773024 -0.749845914727503 0 0 -9.40593165227836 1.11758441075493 8.97994138881816 0 0 0 0 0 0
-2.83621757626534 0 -0.160412323102355 0 -0.663603826514594 0 0 17.3565059661865 0 -17.4215213719677 1.71708755010585 -1.62585872063186 -24.5288029898083 3.54321292590911 7.280559453718 -10.5200229097312 -7.50281146003422 5.75629282057011 -3.54718840370375 -43.9558875533217 -62.8882979453131 -1.48847312870998E-06 0 0 0 0 0 -28.7048850751009 19.8190273444277 44.4735684467713 -2.45360637066842E-05 0 0 0 0 0 33.9178233369563 -7.16502708086316 -1.26192735741171 -24.6213122408056 0 0 3.99877674938692 -2.10104937583614 0.334116357429012 43.2295491340721 13.1421612809012 0.101232950078391 -7.62877318022335 0 0 -16.3873815759374 1.6003161675182 11.6017993229066 0 0 0 0 0 0
-3.40251109004021 0 -0.189744289219379 0 -0.602888721097395 0 0 16.9797041654587 0 -20.1432229872509 1.08304490059886 -2.18386774510351 -28.8637323510103 3.66204309472591 7.03281473545682 -6.35309625496025 -5.65572908430633 4.76369658603643 -9.69973956677048 -51.7342900987642 -54.9515048897554 -3.13661754492738E-08 0 0 0 0 0 -31.8906956753065 30.2714851999496 37.6560660193444 -0.0110645512722436 0 0 0 0 0 46.21518698367 -5.03943267698249 -1.41823343408673 -38.7119788381636 0 0 2.30288998479647 -1.34321517346128 0.989226907707633 55.3002563117885 12.0982964303061 1.91300974638618 -19.100304702597 0 0 -20.9594557490669 2.32683872207885 12.5992236108855 0 0 0 0 0 0
-3.85564807653427 0 -0.237204192578793 0 -0.618438358316598 0 0 16.4017819404602 0 -22.4197518281158 -0.273112276956129 -2.29484160388929 -32.0287261441057 3.4258171619948 6.50187070151209 -1.07887275061783 -3.72968039033696 2.29305827409972 -18.9917404783363 -54.8338010223465 -40.0973936409834 -3.13661754492738E-08 0 0 0 0 0 -33.7094013459296 39.0802442842464 29.4266543287232 -1.4660170895481E-06 0 0 0 0 0 59.3714981785655 -1.60933237339023 -0.432963425695642 -53.0129708657284 0 0 4.3983324264351 -1.2404300979094 -0.479459278372264 64.5374697856501 9.19719108743178 3.6888534148433 -31.9499481258784 0 0 -24.2780389547068 3.06539526383439 12.3813453623236 0 0 0 0 0 0
-4.14055854678154 0 -0.266037762910128 0 -0.705102775919822 0 0 15.639144051075 0 -24.0726284309529 -1.50348449762315 -2.34072287861396 -32.9536857688793 2.45945521242238 6.34538775484992 3.35042498274195 -2.20135177996842 -0.142346257958415 -27.451403954604 -50.5658487556107 -23.3707786746724 -0.0753425961049008 0 0 0 0 0 -32.4650500457749 45.2710470159042 22.2192026069523 -0.00102194881599039 0 0 0 0 0 71.0786510676645 1.22128788598723 1.35966678375481 -64.7322504247713 0 0 7.6520639931156 -1.04173594182776 -2.22250315642424 70.7181456198857 5.81914432755832 5.1653124364007 -43.0700083588469 0 0 -14.7693587182343 2.56943042122332 2.94927563604711 0 0 0 0 0 0
-4.24878813028336 0 -0.361727240681648 0 -0.882895501612374 0 0 14.6807390332222 0 -23.9081103689597 -3.0888000996982 -1.58342786915567 -32.2547034448612 1.79194294344638 5.83916319239114 6.91714981928484 -0.861875731681736 -2.34703698935162 -28.414063020415 -44.5095274440546 -13.9279279549776 -7.42635111817327E-06 0 0 0 0 0 -24.0867338157904 53.3961048476636 20.1930018614748 -8.81064332084798E-07 0 0 0 0 0 79.7297754028648 3.65548617132959 2.71780995049301 -73.7521299407984 0 0 9.41593602150656 -0.365189794004943 -3.13857413581736 76.1511354657611 4.17764877883816 5.88464737847013 -53.8242197542075 0 0 -2.09701979658368 2.39285386300802 2.1855863297758 0 0 0 0 0 0
-4.25241358280182 0 -0.45504730977118 0 -1.0913183426472 0 0 13.7357040405273 0 -22.6212342533469 -3.65624024860382 -0.484180676520813 -28.5560711095994 1.3592446018796 5.22598276059477 9.20670048637333 0.55665734230059 -3.2811356622861 -23.3977827771985 -37.8861040576897 -10.2683126165868 -0.00148707025351863 0 0 0 0 0 -8.84215887014468 54.7175003411028 23.578974144783 -8.63332856780051E-06 0 0 0 0 0 83.2622496020057 3.97622307111049 2.23580993675478 -76.1172127145095 0 0 11.4601492456091 0.584502789790264 -4.18498088104047 80.3712553049425 3.35161409934066 5.28302474647879 -63.6675946878955 0 0 6.37974839738587 4.38985902796094 1.84223857251581 0 0 0 0 0 0
-4.0987322807312 0 -0.459854556620121 0 -1.24677811638103 0 0 13.039716053009 0 -17.2059322735041 -2.82176798365151 0.372586767463071 -24.5380840108397 1.00402914936048 4.07862496535136 9.49211092460704 1.8574905331209 -3.25471441267456 -9.26643603854541 -30.6557620592045 -10.3530023166076 -0.00638597841249065 0 0 0 0 0 12.3863047568281 50.1459737572038 29.5381939379629 -7.25382887580871E-05 0 0 0 0 0 77.452007747883 4.03206113642184 1.01017651280555 -75.9538619103195 0 0 16.0536493308709 -2.39048272633738 2.78835144599641 79.4598406426731 3.27187946909436 4.04069329565564 -71.7422648152521 0 0 9.80855258848351 5.33559009138334 1.48442942823015 0 0 0 0 0 0
-4.10845929086208 0 -0.325951874535531 0 -1.34385724353168 0 0 12.611802148819 0 -10.7910963121944 -1.81190781470102 -0.57473994764212 -17.1502014773552 0.569302657632122 2.93273812403029 8.12839901220616 3.1083820421045 -1.22211711772938 10.2189075933571 -16.1480954587991 -9.67850537600805 -9.78592331592896E-06 0 0 0 0 0 32.3311539814758 39.708020008636 31.2670548760918 5.0322434700708 0 0 0 0 0 73.8280800675951 2.59789715392138 0.60735531523973 -80.3642994725043 0 0 17.2816241675854 -2.25231987873957 2.94331506664724 76.2441046477093 2.31683213944648 4.1662384078633 -76.125709469837 0 0 10.7008510173953 4.72176428682654 1.25833224957361 0 0 0 0 0 0
-4.4108256444335 0 -0.218815479055047 0 -1.28415798963147 0 0 12.4499172449112 0 -4.40841256471831 1.13093088632772 -1.83942307495751 -11.2160145056056 -0.789700326719973 1.3356742326295 10.5042868726155 4.42226058679439 2.23026319455983 33.0512763091725 0.252949828666199 -5.19424239922261 9.70825842397958 0 0 0 0 0 46.7275994696676 17.6057287211695 23.9777680476739 17.4007009200985 0 0 0 0 0 68.7072992754048 -0.487125673264184 -1.88041341827357 -80.8326728646488 0 0 16.4206167983516 -1.62826908924586 2.1223092725121 71.4911706038872 1.17123006017126 2.98998260567777 -75.6682712105538 0 0 8.80625612602711 3.25827353532184 1.65083431280792 0 0 0 0 0 0
